<?xml version="1.0" encoding="utf-8"?>
<!-- Generator: Adobe Illustrator 26.0.0, SVG Export Plug-In . SVG Version: 6.00 Build 0)  -->
<svg version="1.1" id="Calque_1" xmlns="http://www.w3.org/2000/svg" xmlns:xlink="http://www.w3.org/1999/xlink" x="0px" y="0px"
	 viewBox="0 0 530.5 519.9" style="enable-background:new 0 0 530.5 519.9;" xml:space="preserve">
<style type="text/css">
	.st0{fill-rule:evenodd;clip-rule:evenodd;}
</style>
<g>
	<path class="st0" d="M108.5,0H422c6,0,10.9,4.9,10.9,10.9v214.4c0,6-4.9,10.9-10.9,10.9H108.5c-6,0-10.9-4.9-10.9-10.9l0-214.4
		C97.5,4.9,102.5,0,108.5,0L108.5,0z M422,263.6H108.5c-21.1,0-38.3-17.2-38.3-38.3v-37.1H43.8C19.7,188.3,0,207.9,0,232v210.6
		c0,6,4.9,10.9,10.9,10.9h59.2V398c0-21.1,17.2-38.3,38.3-38.3H422c21.1,0,38.3,17.2,38.3,38.3v55.5h59.3c6,0,10.9-4.9,10.9-10.9
		l0-210.6c0-24.1-19.7-43.8-43.8-43.8h-26.4v37.1C460.3,246.4,443.1,263.6,422,263.6L422,263.6z M133.3,311.6
		c0,7.5-6.1,13.7-13.7,13.7H71.8c-7.6,0-13.7-6.1-13.7-13.7S64.2,298,71.8,298h47.8C127.1,298,133.3,304.1,133.3,311.6z
		 M108.5,387.1H422c6,0,10.9,4.9,10.9,10.9v111c0,6-4.9,10.9-10.9,10.9l-313.5,0c-6,0-10.9-4.9-10.9-10.9l0-111
		C97.5,392,102.5,387.1,108.5,387.1L108.5,387.1z M175.4,94.6h179.7c7.5,0,13.7-6.1,13.7-13.7c0-7.6-6.1-13.7-13.7-13.7l-179.7,0
		c-7.5,0-13.7,6.1-13.7,13.7C161.8,88.5,167.9,94.6,175.4,94.6L175.4,94.6z M175.4,169h179.7c7.5,0,13.7-6.1,13.7-13.7
		c0-7.5-6.1-13.7-13.7-13.7H175.4c-7.5,0-13.7,6.1-13.7,13.7C161.8,162.9,167.9,169,175.4,169z"/>
</g>
</svg>
